<svg xmlns="http://www.w3.org/2000/svg" xmlns:xlink="http://www.w3.org/1999/xlink" version="1.1" x="0px" y="0px" viewBox="0 0 29 36.25" style="enable-background:new 0 0 29 29;" xml:space="preserve"><g><g><path fill="#D3D3D3" d="M19,2.5C19,1.119,16.985,0,14.5,0S10,1.119,10,2.5c0,0.868,0.798,1.632,2.008,2.08C12.052,5.923,13.147,7,14.5,7    c1.353,0,2.448-1.077,2.492-2.42C18.202,4.132,19,3.368,19,2.5z M16.816,3.566C16.445,2.649,15.55,2,14.5,2    c-1.05,0-1.945,0.649-2.316,1.566C11.442,3.253,11,2.831,11,2.5C11,1.903,12.396,1,14.5,1S18,1.903,18,2.5    C18,2.831,17.558,3.253,16.816,3.566z"/></g><polygon fill="#D3D3D3" points="10,16 8,16 8,8 0,8 1.2,11 6,11 6,12 1.6,12 2,13 8,18 8,26 10,28  "/><polygon fill="#D3D3D3" points="19,16 21,16 21,8 29,8 27.8,11 23,11 23,12 27.4,12 27,13 21,18 21,26 19,28  "/><polygon fill="#D3D3D3" points="11,16 11,29 14,29 14,18 15,18 15,29 18,29 18,16  "/><polygon fill="#D3D3D3" points="14,15 14,13 11,13 11,12 18,12 18,13 15,13 15,15 20,15 20,8 9,8 9,15  "/></g><text x="0" y="44" fill="#D3D3D3" font-size="5px" font-weight="bold" font-family="'Helvetica Neue', Helvetica, Arial-Unicode, Arial, Sans-serif">Created by PiOS Media</text></svg>