<?xml version="1.0" encoding="iso-8859-1"?>
<!-- Generator: Adobe Illustrator 19.0.0, SVG Export Plug-In . SVG Version: 6.00 Build 0)  -->
<svg version="1.1" id="Layer_1" xmlns="http://www.w3.org/2000/svg" xmlns:xlink="http://www.w3.org/1999/xlink" x="0px" y="0px"
	 viewBox="0 0 505 505" style="enable-background:new 0 0 505 505;" xml:space="preserve">
<circle style="fill:#324A5E;" cx="252.5" cy="252.5" r="252.5"/>
<g>
	<path style="fill:#E6E9EE;" d="M196.2,252.8c-5.5,3.7-11.1,7.1-16.8,10.4c-2.8,1.7-5.7,3.2-8.6,4.8c-2.9,1.6-5.7,3.2-8.6,4.7
		c-11.6,6-23.3,11.7-35.3,16.9l3.5-3.3c-7.6,15.6-15.9,30.9-24.7,46c-2.2,3.7-4.5,7.5-6.8,11.2s-4.7,7.3-7.1,11s-4.9,7.2-7.4,10.9
		c-2.6,3.6-5.2,7.1-8,10.6c1.2-4.3,2.6-8.5,4-12.6c1.5-4.1,2.9-8.3,4.5-12.3c1.6-4.1,3.1-8.2,4.8-12.2c1.7-4,3.4-8,5.1-12
		c7.1-15.9,14.8-31.5,23-46.8l1.3-2.4l2.2-0.9c12.1-4.8,24.3-9.3,36.7-13.4c3.1-1.1,6.2-2,9.4-2.9c3.1-1,6.2-1.9,9.4-2.8
		C183.3,255.8,189.6,254.1,196.2,252.8z"/>
	<path style="fill:#E6E9EE;" d="M196.9,238.9c-3-0.5-5.9-1.1-8.8-1.7c-2.9-0.6-5.8-1.4-8.7-2.1c-5.7-1.5-11.4-3.3-17-5.1
		c-11.2-3.7-22.2-7.9-32.9-12.6l-2.9-1.3l-1-3.1c-3.8-11.7-7.1-23.6-9.8-35.7c-1.4-6-2.6-12.1-3.6-18.3c-0.4-3.1-0.9-6.2-1.3-9.3
		s-0.7-6.2-0.9-9.4c1.7,2.7,3.2,5.4,4.7,8.2s2.9,5.6,4.3,8.3c2.7,5.6,5.2,11.3,7.6,17c4.8,11.4,8.9,23,12.6,34.8l-4-4.4
		c10.8,4.7,21.3,9.9,31.7,15.5c5.2,2.9,10.3,5.8,15.3,9c2.5,1.6,5,3.2,7.5,4.9C192,235.3,194.5,237,196.9,238.9z"/>
	<path style="fill:#E6E9EE;" d="M179.6,403.4c-1.8-2.4-3.4-4.8-5-7.3c-1.7-2.4-3.1-5-4.7-7.5c-3-5-5.9-10.1-8.6-15.2
		c-5.5-10.2-10.5-20.7-15.1-31.3c-1.1-2.4-0.6-5.1,0.9-7l0.1-0.2c8.7-11.1,17.8-21.9,27.5-32.3c4.8-5.2,9.8-10.2,15-15.2
		c2.6-2.5,5.2-4.8,7.9-7.2c2.7-2.3,5.4-4.7,8.3-6.9c-1.5,3.3-3.2,6.5-5,9.6s-3.5,6.2-5.4,9.3c-3.7,6.1-7.6,12-11.6,17.9
		c-8.1,11.7-16.7,22.9-25.7,33.8l1-7.2c4.3,10.7,8.3,21.6,11.8,32.7c1.8,5.5,3.4,11.1,4.8,16.8c0.7,2.8,1.5,5.7,2.1,8.5
		C178.5,397.5,179.1,400.4,179.6,403.4z"/>
	<path style="fill:#E6E9EE;" d="M191,204c-2.3-2.5-4.3-5.1-6.3-7.6c-2-2.6-4-5.2-5.9-7.9c-3.8-5.3-7.4-10.7-10.8-16.3
		c-6.8-11-13-22.4-18.7-33.9l-0.1-0.2c-0.9-1.9-0.9-4.1-0.1-5.9c4.4-9.4,9.1-18.7,14.4-27.8c2.6-4.5,5.3-9,8.2-13.4
		c1.5-2.2,2.9-4.4,4.5-6.6c1.5-2.2,3.1-4.3,4.8-6.4c-0.4,2.7-0.9,5.3-1.5,7.9c-0.5,2.6-1.3,5.1-1.9,7.7c-1.3,5.1-2.8,10.1-4.5,15.1
		c-3.2,10-7,19.7-11,29.3l-0.2-6.1c6.1,11.4,11.7,23,16.7,35c2.5,6,4.8,12.1,6.9,18.2c1,3.1,2,6.2,3,9.4
		C189.4,197.5,190.4,200.7,191,204z"/>
	<path style="fill:#E6E9EE;" d="M308.8,252.8c6.5,1.3,12.9,3,19.2,4.8c3.2,0.8,6.3,1.8,9.4,2.8s6.3,1.9,9.4,2.9
		c12.4,4.1,24.7,8.6,36.7,13.4l2.2,0.9l1.3,2.4c8.3,15.3,15.9,30.9,23,46.8c1.7,4,3.5,8,5.1,12c1.7,4,3.2,8.1,4.8,12.2
		c1.6,4.1,3,8.2,4.5,12.3c1.4,4.2,2.8,8.3,4,12.6c-2.8-3.5-5.4-7-8-10.6c-2.5-3.6-5.1-7.2-7.4-10.9c-2.4-3.7-4.8-7.3-7.1-11
		c-2.3-3.7-4.6-7.4-6.8-11.2c-8.8-15-17.1-30.3-24.7-46l3.5,3.3c-11.9-5.3-23.7-10.9-35.3-16.9c-2.9-1.5-5.8-3.1-8.6-4.7
		c-2.9-1.6-5.8-3.1-8.6-4.8C320,259.9,314.3,256.5,308.8,252.8z"/>
	<path style="fill:#E6E9EE;" d="M308.1,238.9c2.4-1.9,4.8-3.6,7.3-5.3s5-3.2,7.5-4.9c5-3.2,10.2-6.1,15.3-9
		c10.4-5.6,20.9-10.8,31.7-15.5l-4,4.4c3.7-11.8,7.8-23.4,12.6-34.8c2.4-5.7,4.9-11.4,7.6-17c1.4-2.8,2.8-5.6,4.3-8.3
		c1.5-2.8,3-5.5,4.7-8.2c-0.2,3.2-0.5,6.3-0.9,9.4c-0.4,3.1-0.9,6.2-1.3,9.3c-1,6.1-2.2,12.2-3.6,18.3c-2.7,12.1-6,23.9-9.8,35.7
		l-1,3.1l-2.9,1.3c-10.8,4.6-21.8,8.8-32.9,12.6c-5.6,1.8-11.3,3.6-17,5.1c-2.9,0.7-5.7,1.5-8.7,2.1
		C314.1,237.8,311.1,238.4,308.1,238.9z"/>
	<path style="fill:#E6E9EE;" d="M325.4,403.4c0.5-2.9,1.1-5.8,1.7-8.7c0.6-2.9,1.4-5.7,2.1-8.5c1.4-5.7,3.1-11.3,4.8-16.8
		c3.5-11.1,7.5-22,11.8-32.7l1,7.2c-9-10.9-17.6-22.1-25.7-33.8c-4-5.8-7.9-11.8-11.6-17.9c-1.8-3.1-3.6-6.2-5.4-9.3
		c-1.7-3.2-3.4-6.3-5-9.6c2.9,2.2,5.6,4.6,8.3,6.9c2.7,2.4,5.3,4.8,7.9,7.2c5.2,4.9,10.1,10,15,15.2c9.7,10.4,18.8,21.2,27.5,32.3
		l0.1,0.2c1.6,2.1,1.9,4.8,0.9,7c-4.6,10.6-9.6,21-15.1,31.3c-2.7,5.1-5.6,10.2-8.6,15.2c-1.5,2.5-3,5-4.7,7.5
		C328.8,398.5,327.2,401,325.4,403.4z"/>
	<path style="fill:#E6E9EE;" d="M314,204c0.7-3.3,1.6-6.4,2.5-9.6c1-3.1,1.9-6.3,3-9.4c2.1-6.2,4.4-12.2,6.9-18.2
		c5-12,10.6-23.6,16.7-35l-0.2,6.1c-4.1-9.6-7.8-19.3-11-29.3c-1.6-5-3.1-10-4.5-15.1c-0.6-2.6-1.4-5.1-1.9-7.7
		c-0.6-2.6-1.1-5.2-1.5-7.9c1.7,2.1,3.3,4.2,4.8,6.4c1.6,2.1,3,4.4,4.5,6.6c2.9,4.4,5.6,8.9,8.2,13.4c5.2,9.1,10,18.3,14.4,27.8
		c0.9,1.9,0.8,4.1-0.1,5.9l-0.1,0.2c-5.7,11.6-11.9,22.9-18.7,33.9c-3.4,5.5-7,10.9-10.8,16.3c-1.9,2.7-3.9,5.3-5.9,7.9
		S316.2,201.5,314,204z"/>
</g>
<circle style="fill:#FFD05B;" cx="252.5" cy="151.7" r="34.6"/>
<g>
	<circle style="fill:#E6E9EE;" cx="273.2" cy="121.7" r="12.8"/>
	<circle style="fill:#E6E9EE;" cx="231.8" cy="121.7" r="12.8"/>
</g>
<circle style="fill:#FF7058;" cx="252.5" cy="256.7" r="87.3"/>
<g>
</g>
<g>
</g>
<g>
</g>
<g>
</g>
<g>
</g>
<g>
</g>
<g>
</g>
<g>
</g>
<g>
</g>
<g>
</g>
<g>
</g>
<g>
</g>
<g>
</g>
<g>
</g>
<g>
</g>
</svg>
