<?xml version="1.0" encoding="iso-8859-1"?>
<!-- Generator: Adobe Illustrator 19.0.0, SVG Export Plug-In . SVG Version: 6.00 Build 0)  -->
<svg version="1.1" id="Layer_1" xmlns="http://www.w3.org/2000/svg" xmlns:xlink="http://www.w3.org/1999/xlink" x="0px" y="0px"
	 viewBox="0 0 512 512" style="enable-background:new 0 0 512 512;" xml:space="preserve">
<g id="Others">
</g>
<g id="Design">
</g>
<g id="SEO_x2F__Web">
</g>
<g id="Finance__x2F__Money">
</g>
<g id="E-Commerce__x2F__Shopping">
</g>
<g id="Strategy">
	<g id="competition">
		
			<radialGradient id="SVGID_1_" cx="256" cy="258" r="256" gradientTransform="matrix(1 0 0 -1 0 514)" gradientUnits="userSpaceOnUse">
			<stop  offset="0" style="stop-color:#2A93D8"/>
			<stop  offset="1" style="stop-color:#227FBB"/>
		</radialGradient>
		<circle style="fill:url(#SVGID_1_);" cx="256" cy="256" r="256"/>
		<path style="fill:#F2C500;" d="M250.087,120.957c-35.141-60.296-95.353-23.699-95.353-23.699
			c46.498,12,34.499,34.486,34.499,34.486L250.087,120.957z"/>
		<path style="fill:#F59D00;" d="M189.233,380.256c0,0,11.999,22.486-34.499,34.486c0,0,60.211,36.597,95.353-23.699
			L189.233,380.256z"/>
		<path style="fill:#F2C500;" d="M36,220.683C68.002,224.985,65,262,65,262s3.002,37.015-29,41.317c0,0,67,23.683,69-41.317
			C103,197,36,220.683,36,220.683z"/>
		<path style="fill:#F59D00;" d="M65,262c0,0,3.002,37.015-29,41.317c0,0,67,23.683,69-41.317H65z"/>
		<path style="fill:#E87E04;" d="M231.979,255.502l125.482-51.844c-20.37-49.246-68.875-83.899-125.482-83.899
			c-74.969,0-135.743,60.774-135.743,135.743c0,1.333,0.024,2.66,0.062,3.984c2.108,73.125,62.045,131.759,135.681,131.759
			c56.637,0,105.164-34.69,125.514-83.978L231.979,255.502z M230.121,252.938c-0.454-0.263-1.005-0.438-1.68-0.438
			C229.272,252.5,229.776,252.672,230.121,252.938z"/>
		<polygon style="fill:#F2C500;" points="329.251,230.268 352.323,255.729 329.163,258.567 		"/>
		<polygon style="fill:#F59D00;" points="329.162,281.3 352.41,256 329.249,256 		"/>
		<path style="fill:#F2C500;" d="M352.41,256c0,0,90.941-50.643,101.588,0.433L352.41,256z"/>
		<path style="fill:#F59D00;" d="M352.087,256c0,0,91,51,102,0H352.087z"/>
		<path style="fill:#ECF0F1;" d="M231.979,255.502c0,0-0.721-3.002-3.539-3.002c-9.092,0-9.092,8-18.184,8
			c-9.089,0-9.089-8-18.178-8c-9.091,0-9.091,8-18.183,8c-9.09,0-9.09-8-18.18-8s-9.09,8-18.18,8c-9.089,0-9.089-8-18.178-8
			c-9.091,0-9.091,8-18.181,8c-2.011,0-3.562-0.404-4.879-1.014c2.108,73.125,62.045,131.759,135.681,131.759
			c56.637,0,105.164-34.69,125.514-83.978L231.979,255.502z"/>
		<circle style="fill:#2B3E51;" cx="303.3" cy="195.301" r="10.3"/>
		<circle style="fill:#2B3E51;" cx="436.659" cy="255.659" r="6.659"/>
		<circle style="opacity:0.5;fill:#ECF0F1;enable-background:new    ;" cx="384.5" cy="175.5" r="18.5"/>
		<circle style="opacity:0.5;fill:#ECF0F1;enable-background:new    ;" cx="403.286" cy="125.5" r="12.5"/>
		<circle style="opacity:0.5;fill:#ECF0F1;enable-background:new    ;" cx="366.081" cy="102.081" r="18.081"/>
	</g>
</g>
<g>
</g>
<g>
</g>
<g>
</g>
<g>
</g>
<g>
</g>
<g>
</g>
<g>
</g>
<g>
</g>
<g>
</g>
<g>
</g>
<g>
</g>
<g>
</g>
<g>
</g>
<g>
</g>
<g>
</g>
</svg>
