<?xml version="1.0" encoding="iso-8859-1"?>
<!-- Generator: Adobe Illustrator 19.0.0, SVG Export Plug-In . SVG Version: 6.00 Build 0)  -->
<svg version="1.1" id="Layer_1" xmlns="http://www.w3.org/2000/svg" xmlns:xlink="http://www.w3.org/1999/xlink" x="0px" y="0px"
	 viewBox="0 0 512 512" style="enable-background:new 0 0 512 512;" xml:space="preserve">
<circle style="fill:#324A5E;" cx="256" cy="256" r="256"/>
<path style="fill:#2B3B4E;" d="M337.551,498.703c36.352-12.183,70.518-32.732,99.469-61.683
	c38.633-38.633,62.323-86.544,71.097-136.557l-95.07-95.07L291.69,305.783l-137.94-138.78l-14.141,16.289l-51.728,48.466
	l78.976,79.71l-8.189,8.356L337.551,498.703z"/>
<path style="fill:#C1321F;" d="M312.889,199.111c0,0-16.091-45.971-56.889-28.444S243.357,260.598,170.667,256
	c0,0,30.742,46.545,85.333,28.444S312.889,199.111,312.889,199.111z"/>
<path style="fill:#A82116;" d="M170.667,256c0,0,23.466,35.519,65.796,32.428v-98.035C222.865,217.96,226.282,259.517,170.667,256z"
	/>
<path style="fill:#D83E20;" d="M146.432,158.853c-2.882-2.574-7.22-2.631-10.173-0.14c-13.131,11.092-18.51,22.868-20.537,32.232
	c-7.877-4.763-19.216-8.659-34.804-7.737c-3.853,0.228-6.954,3.256-7.273,7.102c-1.477,17.825,6.558,52.436,47.54,55.842
	c0.219,0.019,0.436,0.028,0.652,0.028c3.993,0,7.385-3.063,7.721-7.115c0.355-4.272-2.819-8.018-7.087-8.373
	c-0.04-0.003-0.078-0.009-0.117-0.012l0.948-13.917c1.46,0.1,2.963-0.203,4.332-0.974c0.996-0.56,1.807-1.317,2.439-2.184
	l8.799,8.095c-0.028,0.031-0.052,0.064-0.081,0.095c-2.85,3.2-2.565,8.102,0.633,10.954c1.479,1.317,3.322,1.965,5.156,1.965
	c2.136,0,4.265-0.877,5.796-2.598C177.743,201.39,159.763,170.76,146.432,158.853z"/>
<path style="fill:#FFD15D;" d="M413.048,205.393c-25.867-17.496-85.414-39.845-125.623,0.826
	c-4.405,4.453-8.556,9.257-12.953,14.343c-16.639,19.251-33.844,39.155-65.107,39.155c-0.102,0-0.205,0-0.307,0
	c-49.54-0.2-74.112-50.826-74.355-51.338c-2.055-4.365-6.87-6.73-11.574-5.694c-4.723,1.038-8.097,5.208-8.126,10.042
	c-0.238,40.381,15.27,78.414,43.667,107.096c28.417,28.703,66.334,44.606,106.772,44.775c0.209,0,0.417,0.002,0.626,0.002
	c83.132,0,151.049-67.42,151.528-150.58C417.618,210.565,415.909,207.329,413.048,205.393z"/>
<path style="fill:#F9B54C;" d="M209.367,259.717c-0.102,0-0.205,0-0.307,0c-49.54-0.2-74.112-50.826-74.355-51.338
	c-2.055-4.365-6.87-6.73-11.574-5.694c-4.724,1.038-8.097,5.208-8.126,10.042c-0.238,40.381,15.27,78.414,43.667,107.096
	c21.499,21.716,48.44,36.088,77.791,41.879v-107.88C228.659,257.493,219.798,259.717,209.367,259.717z"/>
<path style="fill:#D83E20;" d="M413.048,205.393c-25.867-17.496-85.414-39.845-125.623,0.826c-3.908,3.951-7.627,8.194-11.485,12.65
	c6.106,27.464,25.564,77.917,87.39,110.283c32.925-27.622,54-68.946,54.267-115.131
	C417.618,210.565,415.909,207.329,413.048,205.393z"/>
<path style="fill:#FFD15D;" d="M355.912,247.191c-4.534,0-8.982-1.845-12.188-5.067c-3.206-3.206-5.051-7.639-5.051-12.173
	c0-4.551,1.843-8.982,5.051-12.205c3.206-3.205,7.654-5.051,12.188-5.051c4.534,0,8.982,1.845,12.186,5.051
	c3.206,3.224,5.053,7.654,5.053,12.205c0,4.534-1.845,8.964-5.053,12.173C364.894,245.345,360.445,247.191,355.912,247.191z"/>
<g>
</g>
<g>
</g>
<g>
</g>
<g>
</g>
<g>
</g>
<g>
</g>
<g>
</g>
<g>
</g>
<g>
</g>
<g>
</g>
<g>
</g>
<g>
</g>
<g>
</g>
<g>
</g>
<g>
</g>
</svg>
