<?xml version="1.0" encoding="iso-8859-1"?>
<!-- Generator: Adobe Illustrator 19.0.0, SVG Export Plug-In . SVG Version: 6.00 Build 0)  -->
<svg version="1.1" id="Layer_1" xmlns="http://www.w3.org/2000/svg" xmlns:xlink="http://www.w3.org/1999/xlink" x="0px" y="0px"
	 viewBox="0 0 508 508" style="enable-background:new 0 0 508 508;" xml:space="preserve">
<circle style="fill:#84DBFF;" cx="254" cy="254" r="254"/>
<g>
	<path style="fill:#2B3B4E;" d="M356.4,248.8c4.8,0,10-0.4,15.2-0.8c5.2-0.4,10-1.2,15.2-2c4.8-1.2,10-2.4,14.8-4
		c1.2-0.4,2.4-0.8,3.6-1.6c1.2-0.4,2.4-1.2,3.6-1.6c1.2-0.8,2.4-1.2,3.2-2l3.2-2l1.2-0.8l0.4,1.2c0.4,0.8,0.8,1.6,1.2,2.4
		c0.4,0.8,0.8,1.2,1.6,2c1.2,1.2,2.4,2.4,4,2.8c2.8,1.6,6.8,1.6,10,0.4c-3.2,1.6-6.8,2-10.4,0.8c-1.6-0.8-3.2-1.6-4.8-2.8
		c-0.8-0.8-1.2-1.2-2-2c-0.4-0.8-1.2-1.6-1.6-2l2,0.4l-3.2,2.8c-0.8,0.8-2,1.6-3.2,2.4c-1.2,0.8-2.4,1.6-3.2,2
		c-1.2,0.8-2.4,1.6-3.6,2c-4.8,2.4-9.6,4.4-14.8,6c-5.2,1.6-10.4,3.2-15.6,4c-5.2,1.2-10.4,2-16,2.8L356.4,248.8z"/>
	<path style="fill:#2B3B4E;" d="M352,307.6c4.4,2,9.2,3.6,14,5.2s9.6,2.8,14.8,4c2.4,0.4,4.8,0.8,7.6,1.2c2.4,0.4,4.8,0.4,7.6,0.8
		c1.2,0,2.4,0,3.6,0s2.4,0,3.6-0.4c1.2,0,2.4,0,3.6-0.4l3.6-0.8l1.6-0.4v1.2c0,0.8,0.4,1.6,0.4,2.4s0.4,1.6,0.8,2.4
		c0.8,1.6,1.6,3.2,2.8,4.4c2.4,2.4,5.6,4.4,9.2,4.4c-3.6,0.4-7.2-0.8-10-3.2c-1.2-1.2-2.4-2.8-3.6-4.4c-0.4-0.8-0.8-1.6-1.2-2.8
		c-0.4-0.8-0.4-1.6-0.8-2.8l1.6,0.8l-3.6,1.2c-1.2,0.4-2.4,0.8-4,0.8c-1.2,0.4-2.8,0.4-4,0.8c-1.2,0-2.8,0.4-4,0.4
		c-2.8,0.4-5.2,0.4-8,0.4s-5.2,0-8-0.4c-5.2-0.4-10.4-1.2-15.6-2.4c-5.2-1.2-10.4-2-15.6-3.6L352,307.6z"/>
	<path style="fill:#2B3B4E;" d="M339.6,374c3.6,3.6,7.6,6.8,11.6,10s8.4,6.4,12.8,9.2c4.4,2.8,8.8,5.2,13.6,7.6
		c2.4,1.2,4.8,2,7.2,2.8c1.2,0.4,2.4,0.8,3.6,0.8l3.6,0.8l1.6,0.4v1.2c-0.4,2-0.4,3.6-0.4,5.2s0.8,3.6,1.2,5.2c1.6,3.2,4,6,7.6,7.6
		c-3.6-0.8-6.8-3.6-8.4-6.8c-0.8-1.6-1.6-3.6-2-5.2c-0.4-0.8-0.4-2-0.4-2.8s0-2,0-2.8l1.2,1.2h-4c-1.2,0-2.8-0.4-4-0.4
		c-2.8-0.4-5.2-1.2-8-2c-5.2-1.6-10.4-3.6-15.2-6c-4.8-2.4-9.6-5.2-14-8c-4.8-2.8-9.2-6-13.6-9.2L339.6,374z"/>
	<path style="fill:#2B3B4E;" d="M151.2,258.4c-5.6-0.4-10.8-1.6-16-2.8c-5.2-1.2-10.4-2.4-15.6-4s-10-3.6-14.8-6
		c-1.2-0.4-2.4-1.2-3.6-2s-2.4-1.2-3.2-2c-1.2-0.8-2.4-1.6-3.2-2.4l-3.2-2.8l2-0.4c-0.4,0.8-1.2,1.6-1.6,2c-0.8,0.8-1.2,1.6-2,2
		c-1.2,1.2-2.8,2-4.8,2.8c-3.6,1.2-7.2,0.8-10.4-0.8c3.2,1.2,6.8,1.2,10-0.4c1.6-0.8,2.8-1.6,4-2.8c0.4-0.8,1.2-1.2,1.6-2
		s0.8-1.6,1.2-2.4l0.4-1.2l1.2,0.8l3.2,2c1.2,0.8,2.4,1.2,3.2,2c1.2,0.8,2.4,1.2,3.6,1.6c1.2,0.4,2.4,1.2,3.6,1.6
		c4.8,2,9.6,3.2,14.8,4c4.8,1.2,10,1.6,15.2,2s10.4,0.8,15.2,0.8L151.2,258.4z"/>
	<path style="fill:#2B3B4E;" d="M159.2,316.8c-5.2,1.6-10.4,2.8-15.6,3.6c-5.2,0.8-10.4,2-15.6,2.4c-2.8,0.4-5.2,0.4-8,0.4
		s-5.2,0-8-0.4c-1.2,0-2.8-0.4-4-0.4s-2.8-0.4-4-0.8s-2.8-0.4-4-0.8l-3.6-1.2l1.6-0.8c-0.4,0.8-0.4,1.6-0.8,2.8
		c-0.4,0.8-0.8,1.6-1.2,2.8c-0.8,1.6-2,3.2-3.6,4.4c-2.8,2.4-6.4,4-10,3.2c3.6,0,6.8-1.6,9.2-4.4c1.2-1.2,2-2.8,2.8-4.4
		c0.4-0.8,0.4-1.6,0.8-2.4c0-0.8,0.4-1.6,0.4-2.4v-1.2l1.6,0.4l3.6,0.8c1.2,0.4,2.4,0.4,3.6,0.4s2.4,0.4,3.6,0.4s2.4,0,3.6,0
		c2.4,0,5.2-0.4,7.6-0.8s4.8-0.8,7.6-1.2c4.8-0.8,10-2.4,14.8-4s9.6-3.2,14-5.2L159.2,316.8z"/>
	<path style="fill:#2B3B4E;" d="M174.8,381.6c-4.4,3.2-8.8,6.4-13.6,9.2c-4.8,2.8-9.2,5.6-14,8s-10,4.4-15.2,6c-2.4,0.8-5.2,1.6-8,2
		c-1.2,0-2.8,0.4-4,0.4h-4l1.2-1.2c0,0.8,0,2,0,2.8c0,1.2-0.4,2-0.4,2.8c-0.4,2-1.2,3.6-2,5.2c-2,3.2-5.2,6-8.4,6.8
		c3.6-1.2,6-4.4,7.6-7.6c0.8-1.6,1.2-3.2,1.2-5.2c0-1.6,0-3.6-0.4-5.2v-1.2l1.6-0.4l3.6-0.8c1.2-0.4,2.4-0.8,3.6-0.8
		c2.4-0.8,4.8-1.6,7.2-2.8c4.8-2,9.2-4.8,13.6-7.6c4.4-2.8,8.4-6,12.8-9.2c4-3.2,8-6.8,11.6-10L174.8,381.6z"/>
	<ellipse style="fill:#2B3B4E;" cx="254" cy="158" rx="69.2" ry="43.6"/>
</g>
<g>
	<ellipse style="fill:#E6E9EE;" cx="288.8" cy="129.6" rx="10.4" ry="11.2"/>
	<ellipse style="fill:#E6E9EE;" cx="219.2" cy="129.6" rx="10.4" ry="11.2"/>
</g>
<path style="fill:#F1543F;" d="M375.2,298.4c0,76-54.4,138-121.2,138s-121.2-61.6-121.2-138c0-29.6,8-57.2,22-79.6
	c22-35.2,58-58.4,99.2-58.4s77.2,23.2,99.2,58.4C367.2,241.6,375.2,268.8,375.2,298.4z"/>
<path style="fill:#FF7058;" d="M375.2,298.4c0,74.8-52.4,136-118,138V222.8h-6.8V436c-65.2-2-117.6-62.8-117.6-137.6
	c0-29.6,8-57.2,22-79.6c22-35.2,58-58.4,99.2-58.4s77.2,23.2,99.2,58.4C367.2,241.2,375.2,268.4,375.2,298.4z"/>
<path style="fill:#324A5E;" d="M353.2,219.2c-21.2,15.6-57.6,26-99.2,26s-78-10.4-99.2-25.6c22-35.2,58-58.4,99.2-58.4
	S331.2,183.6,353.2,219.2z"/>
<g>
	<circle style="fill:#FFFFFF;" cx="334" cy="270" r="15.6"/>
	<circle style="fill:#FFFFFF;" cx="334" cy="343.2" r="15.6"/>
	<circle style="fill:#FFFFFF;" cx="288.8" cy="314" r="15.6"/>
	<circle style="fill:#FFFFFF;" cx="288.8" cy="387.2" r="15.6"/>
	<circle style="fill:#FFFFFF;" cx="174" cy="270" r="15.6"/>
	<circle style="fill:#FFFFFF;" cx="174" cy="343.2" r="15.6"/>
	<circle style="fill:#FFFFFF;" cx="219.2" cy="314" r="15.6"/>
	<circle style="fill:#FFFFFF;" cx="219.2" cy="387.2" r="15.6"/>
</g>
<g>
	<path style="fill:#2B3B4E;" d="M300.4,71.6c0,0,0,1.2,0,3.2c-0.4,2-0.4,5.2-1.2,8.4c-0.4,1.6-1.2,3.6-1.6,5.6c-0.8,2-1.6,4-2.4,6
		c-2,4-4.8,8-7.6,12c-1.6,2-3.2,3.6-4.8,5.2c-1.6,1.6-3.2,3.2-5.2,4.8c-3.6,2.8-6.8,5.2-10,7.2c-2.8,2-5.6,3.2-7.6,4
		s-2.8,1.2-2.8,1.2s0.8-0.8,2.4-2s4-2.8,6.8-5.2c1.2-1.2,2.8-2.4,4.4-3.6s2.8-2.8,4.4-4.4s3.2-3.2,4.4-4.8c1.6-1.6,2.8-3.6,4.4-5.2
		c1.2-2,2.8-3.6,4-5.6s2.4-3.6,3.6-5.6c2-3.6,4-7.2,5.2-10.4c1.2-3.2,2.4-6,2.8-8C300.4,72.8,300.4,71.6,300.4,71.6z"/>
	<path style="fill:#2B3B4E;" d="M207.6,71.6c0,0,0.4,1.2,0.8,3.2c0.4,2,1.6,4.8,2.8,8s3.2,6.8,5.2,10.4c0.8,2,2.4,3.6,3.6,5.6
		c1.2,2,2.8,3.6,4,5.6c1.6,1.6,2.8,3.6,4.4,5.2c1.6,1.6,3.2,3.2,4.4,4.8c1.6,1.6,3.2,2.8,4.4,4.4c1.6,1.2,2.8,2.4,4.4,3.6
		c2.8,2.4,5.2,4,6.8,5.2s2.4,2,2.4,2s-1.2-0.4-2.8-1.2c-1.6-1.2-4.8-2-7.6-4c-3.2-2-6.4-4.4-10-7.2c-1.6-1.6-3.2-3.2-5.2-4.8
		c-1.6-1.6-3.2-3.6-4.8-5.2c-2.8-4-5.6-8-7.6-12c-1.2-2-2-4-2.4-6c-0.8-2-1.2-4-1.6-5.6c-0.8-3.6-1.2-6.4-1.2-8.4
		C207.2,72.8,207.6,71.6,207.6,71.6z"/>
</g>
<g>
</g>
<g>
</g>
<g>
</g>
<g>
</g>
<g>
</g>
<g>
</g>
<g>
</g>
<g>
</g>
<g>
</g>
<g>
</g>
<g>
</g>
<g>
</g>
<g>
</g>
<g>
</g>
<g>
</g>
</svg>
